<svg xmlns="http://www.w3.org/2000/svg" xmlns:xlink="http://www.w3.org/1999/xlink" width="797.14" height="496.943" viewBox="0 0 797.14 496.943"><defs><style>.a,.b,.c,.o,.r{fill:#cbd8e7;}.a{opacity:0.52;}.b{opacity:0.33;}.b,.c,.g,.o,.u{mix-blend-mode:multiply;isolation:isolate;}.c{opacity:0.4;}.d{fill:#a3e3be;}.e{fill:#bdabcf;}.f{fill:#4dd987;}.g,.h{fill:#2e025a;}.i{fill:#c49258;}.j{fill:#d9aa74;}.k{fill:#fff;}.l{fill:url(#a);}.m{fill:url(#b);}.n{fill:url(#c);}.p{fill:url(#d);}.q{fill:url(#e);}.s{fill:url(#g);}.t{fill:url(#h);}.v{fill:#754c28;}.w{fill:url(#l);}.x{fill:#9640d9;}</style><linearGradient id="a" y1="0.5" x2="1" y2="0.5" gradientUnits="objectBoundingBox"><stop offset="0" stop-color="#9640d9"/><stop offset="1" stop-color="#632ecd"/></linearGradient><linearGradient id="b" x1="1.976" y1="0.5" x2="2.976" y2="0.5" gradientUnits="objectBoundingBox"><stop offset="0" stop-color="#5824bf"/><stop offset="1" stop-color="#9640d9"/></linearGradient><linearGradient id="c" y1="0.5" x2="1" y2="0.5" gradientUnits="objectBoundingBox"><stop offset="0" stop-color="#632ecd"/><stop offset="1" stop-color="#9640d9"/></linearGradient><linearGradient id="d" y1="0.5" x2="1" y2="0.5" gradientUnits="objectBoundingBox"><stop offset="0" stop-color="#9640d9"/><stop offset="0.105" stop-color="#9640d9"/><stop offset="0.954" stop-color="#632ecd"/><stop offset="1" stop-color="#632ecd"/></linearGradient><linearGradient id="e" y1="0.5" x2="1" y2="0.5" gradientUnits="objectBoundingBox"><stop offset="0" stop-color="#9640d9"/><stop offset="0.105" stop-color="#9640d9"/><stop offset="0.954" stop-color="#632ecd"/><stop offset="1" stop-color="#9640d9"/></linearGradient><linearGradient id="g" x1="-13.766" y1="0.5" x2="-12.766" y2="0.5" gradientUnits="objectBoundingBox"><stop offset="0.105" stop-color="#f6895d"/><stop offset="0.954" stop-color="#f16680"/></linearGradient><linearGradient id="h" x1="-11.462" y1="1" x2="-11.462" y2="0" xlink:href="#g"/><linearGradient id="l" y1="0.5" x2="1" y2="0.5" gradientUnits="objectBoundingBox"><stop offset="0" stop-color="#f89420"/><stop offset="1" stop-color="#f04f36"/></linearGradient></defs><g transform="translate(-135.938 -245.709)"><path class="a" d="M1020.868,768.308h-622.3s-77.479-152.122,30.746-204.365S567.055,525.527,564.6,442.551s51.653-133.683,95.928-107.561,82.4,92.2,151.27,52.244,167.259-33.8,164.8,93.732,33.206,122.927,61.491,142.9S1102.038,712.991,1020.868,768.308Z" transform="translate(-158.526 -40.145)"/><path class="b" d="M421.645,768.308h622.3s77.479-152.122-30.747-204.365S875.456,525.527,877.917,442.551s-51.653-133.683-95.928-107.561-82.4,92.2-151.271,52.244-167.259-33.8-164.8,93.732-33.206,122.927-61.491,142.9S340.475,712.991,421.645,768.308Z" transform="translate(-158.526 -40.145)"/><rect class="c" width="797.14" height="14.604" rx="5.934" transform="translate(135.938 728.048)"/><g transform="translate(229.132 596.955)"><path class="d" d="M448.98,1010.522s2.85-47.965-.757-55.551-8.883-12.273-14.079-6.592-7.361,6.582-7.442-.259-8.9-21.681-18.575-16.11-2.546,15.094.305,19.147,7.113,9.55,2.909,8.59-9-2.45-8.484,1.832,10.641,6.755,15.686,10.992,5.437,7.75.779,7.02-11.958,4.473-7.145,8.261,30.309,20.607,30.309,20.607Z" transform="translate(-402.818 -930.785)"/><path class="e" d="M461.051,1024.534c-.2-.89-.53-1.94-.865-3.161-.314-1.233-.82-2.565-1.308-4.044s-1.117-3.046-1.746-4.714-1.37-3.4-2.115-5.191c-.069-.168-.145-.34-.218-.505.2-.626.473-1.543.764-2.666.287-1.076.592-2.333.882-3.687.139-.676.308-1.375.435-2.092s.274-1.437.412-2.164c.122-.727.244-1.456.363-2.172s.212-1.429.314-2.111c.195-1.372.348-2.656.451-3.767.22-2.209.246-3.706.246-3.706s-.495,1.417-1.054,3.566c-.287,1.071-.588,2.332-.88,3.683-.143.681-.309,1.378-.438,2.091s-.276,1.437-.411,2.167-.246,1.451-.365,2.17-.212,1.427-.311,2.111c-.2,1.373-.35,2.657-.453,3.763-.091.9-.147,1.665-.183,2.274-.627-1.464-1.276-2.942-1.949-4.447-.854-1.853-1.723-3.737-2.591-5.618-1.8-3.734-3.614-7.457-5.4-10.906s-3.477-6.656-4.976-9.379-2.8-4.96-3.689-6.542c-.907-1.565-1.449-2.451-1.449-2.451s.439.939,1.2,2.583,1.879,3.977,3.208,6.788c1.971,4.127,4.43,9.271,7.016,14.681-.048-.048-.093-.1-.142-.145-.57-.583-1.253-1.242-2-1.917s-1.569-1.389-2.4-2.069-1.7-1.342-2.515-1.937-1.594-1.14-2.277-1.579a26.541,26.541,0,0,0-2.35-1.387,26.256,26.256,0,0,0,1.829,2.024c.57.581,1.252,1.238,2,1.915s1.568,1.391,2.4,2.074,1.691,1.341,2.509,1.938,1.594,1.137,2.281,1.577c.481.313.913.578,1.274.79q1.081,2.265,2.178,4.556c.882,1.869,1.761,3.738,2.628,5.579l2.5,5.42c.775,1.778,1.592,3.463,2.283,5.1s1.4,3.157,1.966,4.6q.437,1.076.842,2.057c.279.647.52,1.268.733,1.862.422,1.184.835,2.2,1.1,3.067.508,1.732.821,2.725.821,2.725S461.417,1026.317,461.051,1024.534Z" transform="translate(-418.136 -948.45)"/><path class="e" d="M450.946,1047.137a23.224,23.224,0,0,0,2.134,1.467c.651.41,1.428.866,2.272,1.325s1.755.929,2.674,1.366,1.863.848,2.751,1.215,1.728.68,2.461.923a22.909,22.909,0,0,0,2.487.725,24.007,24.007,0,0,0-2.134-1.467c-.653-.414-1.427-.866-2.272-1.323s-1.754-.93-2.675-1.368-1.863-.846-2.751-1.211-1.729-.681-2.464-.927A24.494,24.494,0,0,0,450.946,1047.137Z" transform="translate(-426.27 -987.482)"/></g><g transform="translate(257.218 534.037)"><path class="f" d="M477.186,951.084s-22.346-76.66-19.306-90.284,9.856-23.168,20.373-15.883,14.359,7.942,11.962-3.171,6.406-38.417,24.141-32.966,9.7,23.514,6.583,31.135-8,18.1-1.537,14.992,13.679-7.3,14.424-.168-14.745,14.876-21.352,23.607-5.944,14.567,1.332,11.661,21.026,2.827,14.628,10.743-41.489,44.589-41.489,44.589Z" transform="translate(-457.596 -808.068)"/><path class="g" d="M498.582,945.7c.662-3.146,1.348-6.4,2.046-9.707.725-3.3,1.457-6.654,2.2-10.008q.929-4.115,1.844-8.189c.507-.477,1.108-1.065,1.772-1.75.949-.97,2.017-2.131,3.113-3.4s2.246-2.657,3.349-4.067,2.164-2.859,3.129-4.248,1.83-2.691,2.537-3.843a43.348,43.348,0,0,0,2.215-3.957,44.145,44.145,0,0,0-3.295,3.119c-.946.963-2.01,2.125-3.106,3.4s-2.258,2.646-3.359,4.067-2.161,2.854-3.128,4.24-1.825,2.691-2.533,3.845c-.062.1-.118.192-.178.286,2.19-9.72,4.273-18.964,5.941-26.378,1.115-5.045,2.036-9.245,2.689-12.183.63-2.947.995-4.629.995-4.629s-.553,1.636-1.443,4.507c-.863,2.893-2.16,6.993-3.558,11.963-1.423,4.966-2.993,10.782-4.6,17.035s-3.181,12.95-4.713,19.665c-.713,3.368-1.423,6.74-2.122,10.058-.535,2.688-1.04,5.323-1.514,7.925-.285-.972-.658-2.193-1.138-3.616-.576-1.753-1.3-3.776-2.124-5.928-.414-1.073-.813-2.2-1.285-3.306s-.923-2.249-1.393-3.382q-.731-1.7-1.466-3.36c-.473-1.107-1-2.174-1.482-3.226-.973-2.082-1.927-4.011-2.787-5.642-1.7-3.275-3.025-5.387-3.025-5.387s.594,2.418,1.767,5.914c.578,1.762,1.3,3.787,2.123,5.938.417,1.068.824,2.189,1.288,3.3s.923,2.251,1.39,3.386c.491,1.124.978,2.25,1.468,3.351.471,1.116,1,2.185,1.478,3.229.971,2.086,1.928,4.011,2.792,5.648.885,1.713,1.67,3.1,2.221,4.037-.058.3-.118.6-.167.9-.544,3.183-1.108,6.25-1.508,9.193s-.856,5.7-1.087,8.282-.572,4.92-.625,7.035c-.092,2.1-.24,3.929-.234,5.442.068,3.023.138,4.738.138,4.738s.141-1.725.324-4.72c.11-1.495.4-3.3.648-5.376.126-1.039.286-2.136.5-3.288q.294-1.739.6-3.643c.224-1.5.527-3.072.84-4.7.674-.353,1.669-.9,2.837-1.631,1.1-.665,2.34-1.486,3.646-2.407s2.672-1.928,4.008-2.984,2.631-2.145,3.828-3.2,2.288-2.079,3.192-2.986a38.21,38.21,0,0,0,2.915-3.164A40.517,40.517,0,0,0,512.787,944c-1.1.67-2.341,1.492-3.648,2.414s-2.668,1.921-4.01,2.978-2.633,2.141-3.827,3.2-2.287,2.071-3.191,2.984c-.749.737-1.366,1.395-1.842,1.922.169-.884.338-1.78.5-2.7C497.281,951.9,497.983,948.867,498.582,945.7Z" transform="translate(-469.565 -839.367)"/></g><path class="f" d="M1592.039,856.454c.475-1.79.915-3.48,1.336-5.076s.913-3.061,1.308-4.434.767-2.635,1.164-3.752c.488-1.483.9-2.725,1.261-3.765,3.441-1.628,28.62-14.766,23.136-47.767,0,0-34.97,10.519-23.636,47.579-.512.967-1.116,2.14-1.787,3.533-1.062,2.147-2.224,4.81-3.525,7.885-.614,1.548-1.265,3.2-1.946,4.941-.723,1.737-1.094,3.679-1.689,5.645-.415,1.544-.878,3.149-1.321,4.8-.562-1.721-1.3-3.986-2.053-6.267-.374-1.143-.751-2.294-1.11-3.362-.144-.395-.281-.777-.417-1.149,17.534-37-8.417-52.087-8.417-52.087-13.4,40.776,1.8,49.99,6.823,51.865.21.585.439,1.2.679,1.86.353,1.068.732,2.209,1.1,3.34.748,2.276,1.493,4.55,2.051,6.26.1.209.088.432.216.607s.228.347.329.509.193.281.284.422c-.452,1.962-.911,3.971-1.4,6.042-.257,1.147-.552,2.3-.784,3.484-.215,1.181-.431,2.384-.653,3.595-.433,2.429-.877,4.911-1.331,7.431-.366,2.569-.742,5.084-1.047,7.717-.142,1.247-.273,2.51-.41,3.768A10.4,10.4,0,0,0,1580,899q-.205-.991-.423-2c-.28-1.336-.56-2.683-.826-3.942-.331-1.244-.642-2.406-.907-3.4a5.777,5.777,0,0,0-.2-.7c-.112-.215-.227-.411-.324-.6-.1-.174-.181-.3-.272-.448,1.257-6.257,4.409-31.593-22.8-47.021,0,0-13.806,33.75,22.035,48.275a1.783,1.783,0,0,1,0,.206,5.313,5.313,0,0,0,.188.7c.265.979.564,2.118.9,3.34.255,1.238.542,2.56.812,3.891.138.658.279,1.321.418,1.972a16.815,16.815,0,0,1,.308,1.92c.162,1.262.3,2.433.435,3.436a3.264,3.264,0,0,0,.1.718c.048.135.1.258.146.389-.495,4.844-.984,9.726-1.767,14.547-.368,2.668-.949,5.29-1.474,7.906-.275,1.308-.655,2.591-.971,3.872-.345,1.284-.64,2.581-1.078,3.824-.1.284-.184.557-.278.846-.027-.2-.051-.4-.087-.606a25.988,25.988,0,0,0-.532-2.751c-.175-.962-.522-1.911-.791-2.9-.343-.958-.685-1.946-1.11-2.9-.435-.854-.811-1.748-1.321-2.561.194,0,.366.02.56.026,0,0,.374-31.7-32.222-37.083,0,0-4.053,34.995,29.959,36.977.122.2.244.393.363.589a24.432,24.432,0,0,1,1.359,2.626c.4.905.729,1.851,1.064,2.769.257.945.589,1.856.755,2.78.222.911.394,1.8.514,2.648.151.85.215,1.655.3,2.4.06.374.007.739.087,1.076.012.05.018.1.028.149-.383,1.12-.776,2.235-1.239,3.316-.478,1.2-.94,2.4-1.412,3.581-.521,1.17-1.081,2.314-1.611,3.45s-1.06,2.271-1.585,3.392q-.878,1.643-1.743,3.241c-1.166,2.132-2.249,4.242-3.5,6.193-1.22,1.967-2.393,3.887-3.536,5.749-.292.424-.577.842-.868,1.262.049-.49.085-.985.09-1.487a21.218,21.218,0,0,0-.714-5.985,2.258,2.258,0,0,0-.157-.561c-.1-.173-.209-.322-.3-.466-.133-.192-.246-.334-.361-.486.818-3.246,5.943-27.332-18.67-38.822,0,0-12.142,29.679,17.982,39,0,.2,0,.4,0,.639,0,.164,0,.344,0,.53a5.167,5.167,0,0,0,.144.531,19.948,19.948,0,0,1,.664,5.587,16.121,16.121,0,0,1-.321,2.977,11.537,11.537,0,0,1-.318,1.337c-.02.066-.037.119-.06.179l-.662.981c-.574.83-1.136,1.651-1.691,2.45-.56.781-1.151,1.523-1.643,2.309q-1.516,2.328-2.872,4.4c-1.77,2.8-3.459,5.129-4.835,7.067-2.743,3.889-4.272,6.152-4.272,6.152s1.869-1.973,5.1-5.485c1.612-1.765,3.593-3.883,5.709-6.453.745-.871,1.529-1.8,2.339-2.748.113-.012.207-.024.334-.039l.565-.07c.2-.016.36-.166.567-.227a7.9,7.9,0,0,1,1.261-.482c.463-.125.959-.255,1.464-.39s1.031-.305,1.576-.417c.541-.065,1.1-.146,1.656-.225a9.924,9.924,0,0,1,1.66-.166c.555-.021,1.1-.032,1.612-.042a11.233,11.233,0,0,1,1.517.068c.477.049.937.044,1.341.125a3.5,3.5,0,0,0,.6.1c.1-.016.19-.027.294-.035,4.773,3.224,27.436,16.5,52.41-3.271,0,0-25.823-25.206-52.614,1.875-.154-.027-.322-.029-.487-.073-.438-.081-.921-.083-1.43-.139a13.4,13.4,0,0,0-1.6-.072c-.555.013-1.132.026-1.72.047a12.578,12.578,0,0,0-1.755.172c-.588.079-1.171.166-1.752.251-.573.11-1.12.287-1.659.423s-1.054.286-1.548.421a3.437,3.437,0,0,0-.668.227c1-1.269,1.878-2.717,2.885-4.142q1.733-2.54,3.608-5.281c1.152-1.894,2.353-3.838,3.582-5.839,1.278-1.979,2.387-4.135,3.572-6.311.582-1.085,1.174-2.189,1.775-3.3.278-.584.559-1.185.834-1.778.082,0,.152-.01.236-.008.148-.012.246-.139.388-.181,1.057-.512,2.468-1.192,3.867-1.874s2.813-1.367,3.871-1.884c.088-.053.184-.076.266-.119,7.027,1.353,31.45,3.846,46.671-22.548,0,0-33.77-14.109-48.513,21.858-.885.431-1.9.927-2.907,1.413-1.049.5-2.09,1.01-3,1.447.516-1.1,1.05-2.194,1.55-3.328q.722-1.828,1.454-3.676c1.047-2.443,1.809-5.021,2.664-7.6.447-1.276.744-2.6,1.1-3.922.327-1.322.72-2.639,1-3.982.4-2,.807-4.008,1.158-6.023a5.973,5.973,0,0,0,.292-.608c.56-1.148,1.1-2.53,1.888-3.942.76-1.416,1.541-2.941,2.417-4.424,1.683-2.99,3.5-5.911,4.873-8.1a8.465,8.465,0,0,0,.49-.785c.063-.15.123-.3.181-.442,3.923-.5,33.039-5.329,32.693-39.061,0,0-41.174,9.119-33.414,38.052a.684.684,0,0,1-.067.07c-.189.2-.38.4-.588.622s-.3.524-.5.787c-1.388,2.2-3.21,5.132-4.91,8.152-.884,1.489-1.675,3.041-2.442,4.478-.053.1-.1.209-.152.312.631-4.482,1.068-8.95,1.525-13.345.258-2.659.561-5.281.849-7.856s.69-5.188,1.035-7.658c.448-2.482.889-4.937,1.321-7.334.214-1.2.432-2.383.636-3.558.233-1.164.526-2.3.778-3.434.47-2.028.926-3.987,1.372-5.91a13.394,13.394,0,0,1,.861-1.48,21.01,21.01,0,0,1,1.254-1.827,21.24,21.24,0,0,1,1.4-1.732c.46-.56.994-1.052,1.472-1.561a30.332,30.332,0,0,1,2.9-2.484c.21-.183.458-.289.64-.475s.358-.373.51-.538c.009-.013.021-.018.032-.034,5.9.2,25.442-.916,28.265-23.688,0,0-26.493-2.755-29.913,23.3a3.175,3.175,0,0,1-.384.3,31.707,31.707,0,0,0-3.044,2.6c-.507.536-1.059,1.049-1.547,1.644-.455.509-.882,1.045-1.293,1.6.227-.806.456-1.6.669-2.382C1590.911,860.062,1591.541,858.23,1592.039,856.454Z" transform="translate(-725.348 -266.036)"/><g transform="translate(324.102 400.345)"><g transform="translate(42.52)"><path class="h" d="M679.434,586.169l-8.453-20.355,27.861-10.476,6.984-8.024-4.753,22.957Z" transform="translate(-670.981 -547.315)"/><path class="i" d="M693.844,625.566l-1.56,24.073,14.265,5.572L704.766,629.8Z" transform="translate(-681.362 -585.446)"/><path class="j" d="M708.355,592.09s10.7,30.091,0,31.651S693.2,613.491,693.2,613.491s-3.343,1.336-5.795-2.9-1.114-6.43-1.114-6.43l2.451-1.148,1.338-.447-2.451-7.8Z" transform="translate(-678.263 -569.133)"/><path class="h" d="M689.179,596.848s5.332,15.967,10.2,19.314c9.076,6.243,15.668-2.175,15.668-2.175s2.615,11.905-5.346,12.79-14.434,1.307-20.113-22.931Z" transform="translate(-679.849 -571.452)"/></g><g transform="translate(65.898 303.539)"><path class="k" d="M744.145,1148.507c-8.047-1.078-18.973-9.165-18.973-9.165l-5.491,4.988-1.289,11.678h37.5C755.245,1153.491,752.806,1149.667,744.145,1148.507Z" transform="translate(-717.461 -1139.342)"/><path class="h" d="M755.012,1171.848a6.126,6.126,0,0,1,.188,2.307H717.252l.255-2.307-.93,4.437h38.895Z" transform="translate(-716.577 -1155.182)"/><path class="h" d="M755.842,1174.155a6.123,6.123,0,0,0-.188-2.307h-37.5l-.255,2.307Z" transform="translate(-717.219 -1155.182)"/></g><path class="k" d="M642.12,806.909l3.2,4.9-9.274,7.144-3.2-5.436Z" transform="translate(-609.878 -673.812)"/><path class="k" d="M711.324,690.4l-23.243,21.959-22.075-23.009,9.637-22.543h9.051l5.606,3.934,1.085-3.934H698.3Z" transform="translate(-626.037 -605.541)"/><path class="l" d="M628.915,705.446l-3.525-9.947-5.782-16.315s-33.492,36.661-31.472,45.022c.98,4.44,23.879,29.563,23.879,29.563l3.534-3.221,4.995-4.554-15.628-22.947Z" transform="translate(-588.049 -611.573)"/><path class="h" d="M680.1,854.083l-7.795,46.8-9.263,93.189-12.22-.613,1.444-100.254,1.359-73.7,52.364.364-1.278,89.109-4.432,79.651-13.572.182-2.89-87.081Z" transform="translate(-618.636 -679.953)"/><g transform="translate(28.093 308.059)"><path class="k" d="M658.456,1149.677c-2.773-3.415-10.745,0-10.745,0l-4.869,9.1.113,1.53H661.71C661.151,1156.679,660.122,1151.727,658.456,1149.677Z" transform="translate(-642.842 -1148.159)"/><path class="h" d="M662.349,1176.072s-.161-1.818-.532-4.224H643.062l.315,4.224Z" transform="translate(-642.949 -1159.703)"/></g><g transform="translate(72.957 66.191)"><path class="m" d="M745.9,702.676l3.525-9.947,5.782-16.315s33.492,36.661,31.472,45.022c-.98,4.44-19.784,29.528-19.784,29.528l-3.534-3.221-4.995-4.554L769.9,720.276Z" transform="translate(-737.924 -676.414)"/><path class="k" d="M767.665,804.072l-3.2,4.9,9.274,7.144,3.2-5.436Z" transform="translate(-746.972 -738.62)"/><path class="j" d="M755.768,816.678l-3.239,4.136-4.369,3.411s-5.317,3.353-9.053,2.733-9.267-7.943-8.724-9.811,8.29-4.648,8.29-4.648-1.375-1.834,1.28-2.88,10.125,1.072,10.125,1.072Z" transform="translate(-730.345 -741.183)"/></g><path class="n" d="M689.854,666.374l2.133,3.832L685.9,682.171l.016.143-.114-.516L665.9,670.206l2.131-3.832-18.546,5.55,3.835,71.518,19.9,1.938h12.724l14.555-1.416,5.344-.522,2.66-72.508Z" transform="translate(-617.983 -605.331)"/><path class="k" d="M716.691,798.55V788.8h-7.8a24.784,24.784,0,0,0-3.714-8.96l5.52-5.519-6.9-6.9-5.52,5.52a24.794,24.794,0,0,0-8.961-3.713v-7.8h-9.752v7.8a24.792,24.792,0,0,0-8.962,3.713l-5.519-5.52-6.9,6.9,5.519,5.519A24.781,24.781,0,0,0,660,788.8H652.19v9.754H660a24.765,24.765,0,0,0,3.713,8.959l-5.52,5.52,6.9,6.9,5.519-5.519a24.794,24.794,0,0,0,8.962,3.713v7.8h9.752v-7.8a24.816,24.816,0,0,0,8.961-3.713l5.52,5.519,6.9-6.9-5.519-5.52a24.784,24.784,0,0,0,3.713-8.959Zm-32.25,8.945a13.822,13.822,0,1,1,13.822-13.823A13.823,13.823,0,0,1,684.441,807.5Z" transform="translate(-619.304 -651.647)"/><path class="j" d="M641.708,819.515l3.239,4.136,4.369,3.41s5.317,3.354,9.053,2.733,9.267-7.943,8.724-9.811-8.29-4.648-8.29-4.648,1.376-1.834-1.28-2.88-10.125,1.072-10.125,1.072Z" transform="translate(-614.196 -676.375)"/></g><g transform="translate(461.672 317.283)"><rect class="k" width="211.136" height="331.13" transform="translate(0 30.651)"/><path class="g" d="M856.368,1115.84c0,7.2,6.193,13.034,13.836,13.034h183.463c7.643,0,13.837-5.831,13.837-13.034v-24.91H856.368Z" transform="translate(-856.368 -729.15)"/><path class="g" d="M1067.5,398.342c0-7.2-6.194-13.034-13.837-13.034H870.2c-7.642,0-13.836,5.833-13.836,13.034v17.617H1067.5Z" transform="translate(-856.368 -385.308)"/><path class="k" d="M1062.695,1120.247a8.585,8.585,0,1,1-8.584-8.585A8.584,8.584,0,0,1,1062.695,1120.247Z" transform="translate(-948.542 -739.252)"/><path class="o" d="M7.973,0H167.811a7.974,7.974,0,0,1,7.974,7.974v69.9a7.973,7.973,0,0,1-7.973,7.973H7.974A7.974,7.974,0,0,1,0,77.875V7.973A7.973,7.973,0,0,1,7.973,0Z" transform="translate(18.862 66.132)"/><path class="p" d="M7.974,0H167.812a7.973,7.973,0,0,1,7.973,7.973v69.9a7.973,7.973,0,0,1-7.973,7.973H7.974A7.974,7.974,0,0,1,0,77.874V7.974A7.974,7.974,0,0,1,7.974,0Z" transform="translate(21.296 249.9)"/><rect class="o" width="83.463" height="80.314" rx="7.679" transform="translate(18.862 161.964)"/><rect class="o" width="83.463" height="80.314" rx="7.679" transform="translate(111.184 161.964)"/><rect class="q" width="63.773" height="58.321" transform="translate(31.126 78.396)"/><path class="k" d="M975.694,571.3l-19.282,32.091h38.564Z" transform="translate(-905.118 -475.941)"/><path class="k" d="M946.539,567.083a3.781,3.781,0,1,1-3.782-3.781A3.782,3.782,0,0,1,946.539,567.083Z" transform="translate(-896.622 -472.042)"/><path class="k" d="M1142.906,547.8a2.589,2.589,0,0,1-2.589,2.59h-77.263a2.59,2.59,0,0,1-2.589-2.59h0a2.59,2.59,0,0,1,2.589-2.589h77.263a2.589,2.589,0,0,1,2.589,2.589Z" transform="translate(-955.822 -463.226)"/><path class="k" d="M1142.906,578.1a2.589,2.589,0,0,1-2.589,2.59h-77.263a2.59,2.59,0,0,1-2.589-2.59h0a2.589,2.589,0,0,1,2.589-2.589h77.263a2.589,2.589,0,0,1,2.589,2.589Z" transform="translate(-955.822 -477.99)"/><path class="k" d="M1142.906,608.4a2.589,2.589,0,0,1-2.589,2.59h-77.263a2.589,2.589,0,0,1-2.589-2.59h0a2.589,2.589,0,0,1,2.589-2.589h77.263a2.589,2.589,0,0,1,2.589,2.589Z" transform="translate(-955.822 -492.755)"/><path class="k" d="M1142.906,638.694a2.589,2.589,0,0,1-2.589,2.59h-77.263a2.589,2.589,0,0,1-2.589-2.59h0a2.589,2.589,0,0,1,2.589-2.589h77.263a2.589,2.589,0,0,1,2.589,2.589Z" transform="translate(-955.822 -507.519)"/><path class="k" d="M956.251,579.019l-4.876-8.115-19.282,32.091h9.752Z" transform="translate(-893.268 -475.747)"/><path class="o" d="M1073.912,1057.4a2.433,2.433,0,0,1-2.434,2.434H901.1a2.434,2.434,0,0,1-2.434-2.434h0a2.434,2.434,0,0,1,2.434-2.434h170.381a2.434,2.434,0,0,1,2.434,2.434Z" transform="translate(-876.978 -711.625)"/><path class="l" d="M900.144,461.153a3.054,3.054,0,0,0-3.064,3.043v12.576a3.054,3.054,0,0,0,3.064,3.042h16.611V461.153Z" transform="translate(-876.207 -422.266)"/><path class="r" d="M1084.719,461.153H935.455v18.661h149.264a3.053,3.053,0,0,0,3.064-3.042V464.2A3.053,3.053,0,0,0,1084.719,461.153Z" transform="translate(-894.906 -422.266)"/><path class="k" d="M915.878,477.838l-2-3.677a3.691,3.691,0,1,0-1.565.851l2,3.677a.891.891,0,0,0,1.565-.851Zm-3.487-4.549a2.1,2.1,0,1,1,.842-2.847A2.1,2.1,0,0,1,912.391,473.288Z" transform="translate(-881.38 -425.483)"/></g><g transform="translate(249.785 683.305)"><path class="s" d="M456.489,1101.033h38.188l-4.761,41.418h-36.16L449,1101.033Z" transform="translate(-445.973 -1100.095)"/><rect class="t" width="52.644" height="8.436"/></g><g class="u" transform="translate(579.601 498.649)"><path class="o" d="M1120.443,741.053a2.007,2.007,0,0,1-2.006,2.007h-30.053a2.007,2.007,0,0,1-2.006-2.007h0a2.006,2.006,0,0,1,2.006-2.006h30.053a2.007,2.007,0,0,1,2.006,2.006Z" transform="translate(-1086.378 -739.047)"/><path class="o" d="M1190.945,739.047h-27.438a2.007,2.007,0,0,0,0,4.013h27.438a2.007,2.007,0,0,0,0-4.013Z" transform="translate(-1122.984 -739.047)"/><path class="o" d="M1196.728,762.784h-16.485a2.006,2.006,0,0,0,0,4.013h16.485a2.006,2.006,0,1,0,0-4.013Z" transform="translate(-1128.768 -750.614)"/><path class="o" d="M1132,764.53a2.007,2.007,0,0,1-2.006,2.007h-41.615a2.006,2.006,0,0,1-2.006-2.007h0a2.006,2.006,0,0,1,2.006-2.005H1130A2.006,2.006,0,0,1,1132,764.53Z" transform="translate(-1086.378 -750.488)"/></g><g class="u" transform="translate(579.601 534.55)"><path class="o" d="M1120.443,811.076a2.007,2.007,0,0,1-2.006,2.007h-30.053a2.007,2.007,0,0,1-2.006-2.007h0a2.006,2.006,0,0,1,2.006-2.006h30.053a2.007,2.007,0,0,1,2.006,2.006Z" transform="translate(-1086.378 -809.07)"/><path class="o" d="M1190.945,809.07h-27.438a2.006,2.006,0,0,0,0,4.013h27.438a2.006,2.006,0,0,0,0-4.013Z" transform="translate(-1122.984 -809.07)"/><path class="o" d="M1196.728,832.807h-16.485a2.006,2.006,0,0,0,0,4.012h16.485a2.006,2.006,0,1,0,0-4.012Z" transform="translate(-1128.768 -820.637)"/><path class="o" d="M1132,834.554a2.007,2.007,0,0,1-2.006,2.007h-41.615a2.006,2.006,0,0,1-2.006-2.007h0a2.005,2.005,0,0,1,2.006-2.005H1130a2.006,2.006,0,0,1,2.006,2.005Z" transform="translate(-1086.378 -820.511)"/></g><path class="o" d="M1154.339,786h-65.955a2.006,2.006,0,0,0,0,4.013h65.955a2.006,2.006,0,0,0,0-4.013Z" transform="translate(-506.777 -263.279)"/><path class="o" d="M1154.339,718.354h-65.955a2.006,2.006,0,0,0,0,4.012h65.955a2.006,2.006,0,1,0,0-4.012Z" transform="translate(-506.777 -230.315)"/><path class="k" d="M973.347,829.323H907.392a2.006,2.006,0,1,0,0,4.012h65.955a2.006,2.006,0,0,0,0-4.012Z" transform="translate(-418.582 -284.389)"/><path class="k" d="M973.347,761.674H907.392a2.006,2.006,0,1,0,0,4.011h65.955a2.006,2.006,0,0,0,0-4.011Z" transform="translate(-418.582 -251.424)"/><g transform="translate(486.804 520.859)"><path class="k" d="M939.451,784.372a2.008,2.008,0,0,1-2.006,2.008H907.392a2.007,2.007,0,0,1-2.006-2.008h0a2.007,2.007,0,0,1,2.006-2.006h30.053a2.007,2.007,0,0,1,2.006,2.006Z" transform="translate(-905.386 -782.366)"/><path class="k" d="M1009.953,782.366H982.514a2.007,2.007,0,0,0,0,4.014h27.439a2.007,2.007,0,0,0,0-4.014Z" transform="translate(-941.993 -782.366)"/><path class="k" d="M1015.737,806.1H999.251a2.007,2.007,0,0,0,0,4.013h16.486a2.007,2.007,0,0,0,0-4.013Z" transform="translate(-947.776 -793.932)"/><path class="k" d="M951.013,807.85a2.006,2.006,0,0,1-2.006,2.006H907.392a2.005,2.005,0,0,1-2.006-2.006h0a2.005,2.005,0,0,1,2.006-2.005h41.615a2.006,2.006,0,0,1,2.006,2.005Z" transform="translate(-905.386 -793.807)"/></g><g transform="translate(475.543 245.709)"><path class="j" d="M985.35,404.784s5.91,2.686,8.356,4,9.849-.09,9.849-.09,1.015,1.731,0,2.328a39.205,39.205,0,0,1-4.059,1.7l10.624,9.52s-1.014,1.4-2.925.269c-1.693-1-9.132-5.073-9.132-5.073s-4.477,3.7-7.521,3.522-10.117-5.432-10.117-5.432Z" transform="translate(-930.69 -323.224)"/><path class="h" d="M948.126,289.793s-15.968-38.087,12.009-43.64c0,0,20.667-4.412,20.24,14.6,0,0,2.99,18.154,14.736,15.8s14.522,8.757,13.668,13.028,7.9,10.891,14.737,10.037,13.882,8.969,13.882,15.8-106.143,0-106.143,0Z" transform="translate(-906.73 -245.709)"/><path class="j" d="M976.733,295a5.9,5.9,0,1,1-5.9-5.9A5.912,5.912,0,0,1,976.733,295Z" transform="translate(-923.14 -266.851)"/><path class="i" d="M976.612,307.857l-5,28.359,15.168-1.77,1.558-23.483Z" transform="translate(-926.395 -275.993)"/><path class="j" d="M998.093,273.117l1.536,17.158s-.633,14.372-11.743,11.133-12.176-27.635-12.176-27.635Z" transform="translate(-928.392 -259.065)"/><path class="l" d="M930.559,332.838l-13.858,2.4s-36.459,13.714-33.057,22.041c1.927,4.715,51,26.865,51,26.865l6.6-15.316L923.536,359.8l77.694,1.033s5.384-4.663,1.326-11.711-49.882-15.3-49.882-15.3Z" transform="translate(-883.421 -288.166)"/><path class="n" d="M946.022,368.9l-18.741-9.67s16.772-8.476,19.279-8.953,9.461,6.148,13.878,6.984,15.907,1.85,16.265,1.97,7.88,9.55,7.88,9.55" transform="translate(-904.793 -296.652)"/><path class="k" d="M1008.871,310.415c0,2.275-.621,4.118-1.388,4.118s-1.388-1.843-1.388-4.118.621-4.119,1.388-4.119S1008.871,308.14,1008.871,310.415Z" transform="translate(-943.199 -275.232)"/></g><path class="l" d="M1056.026,364.533c-1.217-.152-33.24-.3-33.24-.3s.359,7.933,1.167,11.156c.051.2,40.263.913,40.263.913" transform="translate(-475.789 -57.753)"/><path class="j" d="M1002.795,378.861l-.9-7.289s-12.826,1.041-14.72,2.413c-3.236.746-7.807,1.882-7.807,2.341a2.214,2.214,0,0,0,1.927,2.535c1.826.2,18.864,0,18.864,0h2.637Z" transform="translate(-454.632 -61.332)"/><g transform="translate(624.123 294.304)"><g transform="translate(9.737 18.662)"><rect class="v" width="55.577" height="8.519"/><rect class="v" width="55.577" height="8.519" transform="translate(11.893 33.91)"/><rect class="v" width="55.577" height="8.519" transform="translate(23.787 67.82)"/><rect class="v" width="55.577" height="8.519" transform="translate(35.681 101.731)"/><rect class="v" width="55.577" height="8.519" transform="translate(47.574 135.641)"/><rect class="v" width="55.577" height="8.519" transform="translate(59.468 169.551)"/><rect class="v" width="55.577" height="8.519" transform="translate(71.361 203.461)"/><rect class="v" width="55.577" height="8.519" transform="translate(83.255 237.371)"/><rect class="v" width="55.577" height="8.519" transform="translate(95.148 271.282)"/><rect class="v" width="55.577" height="8.519" transform="translate(107.042 305.192)"/><rect class="v" width="55.577" height="8.519" transform="translate(118.935 339.102)"/><rect class="v" width="55.577" height="8.519" transform="translate(130.829 373.012)"/></g><path class="w" d="M1326.257,767.675a3.654,3.654,0,0,1-3.44-2.429L1173.427,345.366a3.651,3.651,0,0,1,6.88-2.448L1329.7,762.8a3.654,3.654,0,0,1-3.44,4.876Z" transform="translate(-1173.215 -340.49)"/><g transform="translate(53.548)"><path class="w" d="M1430.7,767.675a3.653,3.653,0,0,1-3.44-2.429l-149.39-419.881a3.652,3.652,0,0,1,6.881-2.448L1434.137,762.8a3.654,3.654,0,0,1-3.439,4.876Z" transform="translate(-1277.657 -340.49)"/></g><g transform="translate(64.651 14.752)"><path class="j" d="M1326.85,409.577l-8.171-5.354-2.395-3.944-6.434-2.771,5.917,15.872,1.644.423,5.635,2.113" transform="translate(-1304.448 -383.026)"/><path class="h" d="M1494,406.564c-6.5,30,21.977,42.967-8.453,51.7,0,0,6.038-26.142-6.6-25.825a117.913,117.913,0,0,0-23.817,3.206s1.254-20.557.415-28.487S1494,406.564,1494,406.564Z" transform="translate(-1375.24 -385.93)"/><g transform="translate(17.142 25.988)"><path class="l" d="M1366.182,436.431c-7.043-6.2-29.3-16.483-29.3-16.483l-4.133,5.729s20.421,19.894,27.613,24.09c11.862,6.926,38.017,7.236,38.017,7.236l16.079-15.595S1373.229,442.632,1366.182,436.431Z" transform="translate(-1332.747 -419.948)"/></g><path class="k" d="M1431.457,471.218l-6.386,90.724,30,16.2-1.727-124.578S1435.777,454.782,1431.457,471.218Z" transform="translate(-1360.593 -410.34)"/><path class="k" d="M1461.542,450.568l-.751-4.038,6.2-4.508,7.138,4.883" transform="translate(-1377.999 -404.717)"/><path class="j" d="M1465.736,843.229l1.315,13.525,11.27.563-2.066-15.966" transform="translate(-1380.409 -599.306)"/><path class="j" d="M1487.093,414.962a5.014,5.014,0,1,0,5.014-5.015A5.023,5.023,0,0,0,1487.093,414.962Z" transform="translate(-1390.816 -389.087)"/><path class="i" d="M1474.152,420.447l4.249,24.093.839,16.718-24.8-.554,11.075-17.667-1.324-19.95Z" transform="translate(-1374.904 -394.203)"/><path class="k" d="M1459.809,871.7l3,11.638s-21.707,6.136-32.606,6.564c-4.461.177-4.251-1.17-4.484-3.4-.523-5.01,20.7-14.777,20.7-14.777Z" transform="translate(-1360.902 -614.096)"/><path class="j" d="M1339.343,678.735l1.314,13.524,11.27.563-2.066-15.965" transform="translate(-1318.819 -519.149)"/><path class="k" d="M1333.416,707.21l3,11.637s-36.289,10.836-37.09,3.167c-.523-5.01,20.7-14.777,20.7-14.777Z" transform="translate(-1299.313 -533.94)"/><path class="h" d="M1457.646,380.095s-10.676,18.466-3.359,28.071l6.282-22.437Z" transform="translate(-1373.581 -374.54)"/><path class="j" d="M1460.448,389.5l-2.59,18.1s.366,12.943,9.8,10.193,9.066-19.28,9.066-19.28Z" transform="translate(-1376.57 -379.125)"/><path class="h" d="M1458.225,379.612s14.117,15.825,22.259,15.4,15.026-5.644,15.026-5.644-5.752-33.251-35-14.238Z" transform="translate(-1376.749 -369.261)"/><path class="l" d="M1477.012,459.19c-4.184-4.667-23.858,1.5-23.858,1.5s-10.492,16.037-11.785,23.267c-.065.383-.125.765-.172,1.109-.837,6.69,5.43,10.028,5.43,10.028l-2.785,19.647,2.369,12.68,33.356-2s1.661-30.834.74-49.7" transform="translate(-1368.414 -412.232)"/><g transform="translate(10.892 97.199)"><path class="h" d="M1450.58,593.466l30.359,16.68-13.028,65.025.522,52.538-10.827.257-9.113-55.46.949-55.675.416-23.252Z" transform="translate(-1382.898 -575.712)"/><path class="h" d="M1418.225,571.885s11.1,16.767,2.429,29.733c-15.888,23.742-84.489-29.986-80.616-21.943,3.323,6.9,1.715,46.975,1.715,46.975l-11.786.287s-18.83-61.3-3.22-66.771C1344.63,553.9,1418.225,571.885,1418.225,571.885Z" transform="translate(-1320.557 -558.84)"/></g><path class="k" d="M1480.333,457.127l-2.113,11.975-1.127,90.442,34.661,15.831s-9.366-115.572-10.421-118.354S1485.4,449.238,1480.333,457.127Z" transform="translate(-1385.943 -410.008)"/><path class="x" d="M1548.768,542.35l-54.66-25.217,10.378-7.09-37.286-3.4,18.409,35.994,2.019-14.862,48.884,44.353Z" transform="translate(-1381.122 -436.203)"/><path class="j" d="M1539.969,574.459s9.423,8.212,10.875,4.239c.428-1.171,3.36-6.94,1.76-9.249-1.41-2.009-6.88-5.149-9.35-5.716a2.336,2.336,0,0,0-.855-.075C1540.732,563.925,1538.277,568.921,1539.969,574.459Z" transform="translate(-1416.304 -463.981)"/><path class="l" d="M1509.993,475.727c9.73,1.365,18.852,3.641,20.489,7.417,3.735,8.616-2.439,26.375-2.439,26.375l4.941,1.755,2.448.872s12.877-31.6,6.861-37.367c-8.178-7.814-32.344-15.478-39.307-17.325C1502.984,457.454,1498.241,472.8,1509.993,475.727Z" transform="translate(-1398.099 -412.237)"/><path class="j" d="M1550.233,554.035l7.537,3.028-2.112,8.805-10.284-6.481" transform="translate(-1419.215 -459.3)"/></g><path class="k" d="M1502.734,447.179l-3.119-9.812-11.687,5.857.405,4.31" transform="translate(-1326.571 -387.697)"/><path class="k" d="M1463.4,430.543l5.781.456s-2.206,2.891-3.879,2.13" transform="translate(-1314.619 -384.372)"/></g><path class="o" d="M440.016,541.225V526.5H428.236a37.383,37.383,0,0,0-5.6-13.523l8.332-8.332-10.409-10.411-8.332,8.332a37.424,37.424,0,0,0-13.525-5.6V485.184h-14.72v11.779a37.416,37.416,0,0,0-13.526,5.6l-8.332-8.332L351.71,504.647l8.331,8.332a37.392,37.392,0,0,0-5.6,13.523H342.657v14.723h11.781a37.383,37.383,0,0,0,5.6,13.522l-8.332,8.333,10.409,10.411,8.332-8.333a37.416,37.416,0,0,0,13.526,5.605v11.779H398.7V570.764a37.461,37.461,0,0,0,13.525-5.605l8.332,8.333,10.409-10.411-8.331-8.333a37.4,37.4,0,0,0,5.6-13.522Zm-48.679,13.5A20.863,20.863,0,1,1,412.2,533.864,20.865,20.865,0,0,1,391.337,554.727Z" transform="translate(-144.37 -116.694)"/><path class="o" d="M1125.793,274.642v-4.785h-3.829a12.161,12.161,0,0,0-1.822-4.4l2.708-2.708-3.382-3.383-2.708,2.708a12.166,12.166,0,0,0-4.4-1.822v-3.828h-4.785v3.828a12.17,12.17,0,0,0-4.4,1.822l-2.707-2.708-3.383,3.383,2.708,2.708a12.155,12.155,0,0,0-1.822,4.4h-3.829v4.785h3.829a12.152,12.152,0,0,0,1.822,4.4l-2.708,2.708,3.383,3.384,2.707-2.708a12.161,12.161,0,0,0,4.4,1.822v3.828h4.785v-3.828a12.175,12.175,0,0,0,4.4-1.822l2.708,2.708,3.382-3.384-2.708-2.708a12.158,12.158,0,0,0,1.822-4.4Zm-15.822,4.389a6.781,6.781,0,1,1,6.781-6.781A6.781,6.781,0,0,1,1109.971,279.031Z" transform="translate(-510.564 -5.223)"/><path class="o" d="M1702.5,669.464v-10.49H1694.1a26.673,26.673,0,0,0-3.994-9.636l5.936-5.936-7.416-7.419-5.936,5.936a26.654,26.654,0,0,0-9.636-3.992v-8.394h-10.49v8.394a26.646,26.646,0,0,0-9.636,3.992L1647,635.984l-7.416,7.419,5.936,5.936a26.669,26.669,0,0,0-3.991,9.636h-8.394v10.49h8.394a26.643,26.643,0,0,0,3.993,9.635l-5.937,5.937,7.416,7.418,5.937-5.937a26.674,26.674,0,0,0,9.636,3.994V698.9h10.49v-8.392a26.719,26.719,0,0,0,9.636-3.994l5.936,5.937,7.416-7.418-5.936-5.937a26.676,26.676,0,0,0,3.994-9.635Zm-34.685,9.621a14.865,14.865,0,1,1,14.865-14.865A14.866,14.866,0,0,1,1667.813,679.085Z" transform="translate(-773.203 -187.034)"/><path class="r" d="M1701.237,688.411a9.229,9.229,0,1,1-9.228-9.229A9.228,9.228,0,0,1,1701.237,688.411Z" transform="translate(-797.397 -211.227)"/><g class="u" transform="translate(379.529 269.053)"><g transform="translate(0 0)"><path class="r" d="M712.786,324.507a16.633,16.633,0,1,1,16.634-16.633A16.651,16.651,0,0,1,712.786,324.507Zm0-30.832a14.2,14.2,0,1,0,14.2,14.2A14.214,14.214,0,0,0,712.786,293.674Z" transform="translate(-696.155 -291.24)"/></g><g transform="translate(15.414 7.989)"><rect class="r" width="2.434" height="17.289"/></g><g transform="translate(7.988 15.416)"><rect class="r" width="17.288" height="2.434"/></g></g></g></svg>