<svg xmlns="http://www.w3.org/2000/svg" width="82.424" height="82.424" viewBox="0 0 82.424 82.424"><defs><style>.a{fill:#cbd8e7;mix-blend-mode:multiply;isolation:isolate;}</style></defs><path class="a" d="M425.082,532.629V520.164h-9.973a31.649,31.649,0,0,0-4.745-11.449l7.054-7.054-8.812-8.814-7.054,7.054a31.683,31.683,0,0,0-11.45-4.745v-9.973H377.639v9.973a31.677,31.677,0,0,0-11.451,4.745l-7.054-7.054-8.812,8.814,7.053,7.054a31.657,31.657,0,0,0-4.744,11.449h-9.974v12.465h9.974a31.648,31.648,0,0,0,4.744,11.448l-7.053,7.055,8.812,8.814,7.054-7.055a31.677,31.677,0,0,0,11.451,4.746v9.972H390.1v-9.972a31.715,31.715,0,0,0,11.45-4.746l7.054,7.055,8.812-8.814-7.053-7.055a31.662,31.662,0,0,0,4.744-11.448ZM383.87,544.06A17.663,17.663,0,1,1,401.532,526.4,17.664,17.664,0,0,1,383.87,544.06Z" transform="translate(-342.657 -485.184)"/></svg>